<svg width="17" height="18" viewBox="0 0 17 18" fill="none" xmlns="http://www.w3.org/2000/svg">
<path d="M8.25024 1.0467V8.96337M8.25024 8.96337L15.3336 5.02813M8.25024 8.96337L1.16691 5.02813M8.25024 8.96337V16.88M15.3336 12.8986L8.89777 9.3231C8.66143 9.1918 8.54326 9.12616 8.41812 9.10042C8.30736 9.07764 8.19313 9.07764 8.08237 9.10042C7.95723 9.12616 7.83906 9.1918 7.60272 9.3231L1.16691 12.8986M15.7502 12.3455V5.58124C15.7502 5.2957 15.7502 5.15294 15.7082 5.0256C15.671 4.91296 15.6101 4.80955 15.5297 4.72231C15.4388 4.6237 15.314 4.55436 15.0644 4.4157L8.89777 0.98977C8.66143 0.858471 8.54326 0.792822 8.41812 0.767085C8.30736 0.744305 8.19313 0.744305 8.08237 0.767085C7.95723 0.792822 7.83906 0.858472 7.60272 0.98977L1.43605 4.4157C1.18645 4.55437 1.06165 4.6237 0.970772 4.72231C0.890375 4.80956 0.829534 4.91296 0.792315 5.0256C0.750244 5.15294 0.750244 5.2957 0.750244 5.58124V12.3455C0.750244 12.631 0.750244 12.7738 0.792315 12.9011C0.829534 13.0138 0.890376 13.1172 0.970772 13.2044C1.06165 13.303 1.18645 13.3724 1.43605 13.511L7.60272 16.937C7.83906 17.0683 7.95723 17.1339 8.08237 17.1596C8.19313 17.1824 8.30736 17.1824 8.41812 17.1596C8.54326 17.1339 8.66143 17.0683 8.89777 16.937L15.0644 13.511C15.314 13.3724 15.4388 13.303 15.5297 13.2044C15.6101 13.1172 15.671 13.0138 15.7082 12.9011C15.7502 12.7738 15.7502 12.631 15.7502 12.3455Z" stroke="#E8DDC4" stroke-width="1.5" stroke-linecap="round" stroke-linejoin="round"/>
</svg>
