<svg width="18" height="17" viewBox="0 0 18 17" fill="none" xmlns="http://www.w3.org/2000/svg">
<path d="M17.982 5.75513L16.6821 0.481982C16.6484 0.344834 16.5685 0.222771 16.4555 0.135371C16.3424 0.0479711 16.2026 0.000298622 16.0586 0H1.94143C1.79738 0.000298622 1.65761 0.0479711 1.54454 0.135371C1.43146 0.222771 1.35164 0.344834 1.31786 0.481982L0.0192857 5.75513C0.00693176 5.8045 0.000460045 5.8551 0 5.90593C0 5.94591 -1.97573e-08 5.98589 0.00449998 6.02587C0.0208709 6.38784 0.11478 6.74239 0.280131 7.0665C0.445481 7.39061 0.678577 7.67705 0.964286 7.9072V15.1111C0.964796 15.6119 1.16815 16.0921 1.52971 16.4462C1.89128 16.8003 2.38152 16.9995 2.89286 17H15.1071C15.6185 16.9995 16.1087 16.8003 16.4703 16.4462C16.8319 16.0921 17.0352 15.6119 17.0357 15.1111V7.9072C17.3214 7.67705 17.5545 7.39061 17.7199 7.0665C17.8852 6.74239 17.9791 6.38784 17.9955 6.02587C17.999 5.98589 18 5.94591 18 5.90593V5.90278C18 5.85304 17.9939 5.80348 17.982 5.75513ZM15.5523 1.25926L16.7111 5.96543C16.6962 6.30929 16.546 6.63417 16.2919 6.87193C16.0378 7.10969 15.6996 7.24186 15.3482 7.24074H15.1875C14.8346 7.24179 14.4951 7.10846 14.2407 6.86891C13.9862 6.62936 13.8368 6.30235 13.824 5.95693C13.824 5.93961 13.824 5.92009 13.8214 5.90278C13.8214 5.89018 13.8214 5.87791 13.8214 5.86531L13.5395 1.25926H15.5523ZM9.64286 1.25926H12.2516L12.5357 5.92167C12.5357 5.93331 12.5335 5.94496 12.5331 5.95693C12.5203 6.30235 12.3709 6.62936 12.1165 6.86891C11.8621 7.10846 11.5226 7.24179 11.1696 7.24074H11.0089C10.656 7.24179 10.3165 7.10846 10.0621 6.86891C9.80767 6.62936 9.65827 6.30235 9.64543 5.95693C9.64543 5.93961 9.64543 5.92009 9.64286 5.90278V1.25926ZM5.74843 1.25926H8.35714V5.90278C8.35714 5.90781 8.35714 5.91317 8.35714 5.9182C8.35714 5.93111 8.35457 5.94402 8.35393 5.95693C8.34109 6.30224 8.19178 6.62916 7.9375 6.86869C7.68322 7.10822 7.34387 7.24162 6.99107 7.24074H6.83036C6.47745 7.24179 6.13793 7.10846 5.88352 6.86891C5.6291 6.62936 5.4797 6.30235 5.46686 5.95693C5.46686 5.94276 5.46686 5.92544 5.46493 5.91159L5.74843 1.25926ZM2.44768 1.25926H4.46046L4.17857 5.86531C4.17857 5.87791 4.17857 5.89018 4.17857 5.90278C4.17857 5.90781 4.17857 5.91317 4.17857 5.9182C4.17857 5.93111 4.176 5.94402 4.17536 5.95693C4.16252 6.30224 4.01321 6.62916 3.75893 6.86869C3.50465 7.10822 3.1653 7.24162 2.8125 7.24074H2.65179C2.30038 7.24186 1.96218 7.10969 1.7081 6.87193C1.45402 6.63417 1.3038 6.30929 1.28893 5.96543L2.44768 1.25926ZM10.6071 15.7407H7.39286V11.6481C7.39286 11.4812 7.46059 11.321 7.58115 11.2029C7.7017 11.0849 7.86522 11.0185 8.03571 11.0185H9.96429C10.1348 11.0185 10.2983 11.0849 10.4189 11.2029C10.5394 11.321 10.6071 11.4812 10.6071 11.6481V15.7407ZM15.75 15.1111C15.75 15.2781 15.6823 15.4382 15.5617 15.5563C15.4412 15.6744 15.2776 15.7407 15.1071 15.7407H11.8929V11.6481C11.8923 11.1473 11.689 10.6672 11.3274 10.3131C10.9659 9.95893 10.4756 9.75976 9.96429 9.75926H8.03571C7.52438 9.75976 7.03414 9.95893 6.67257 10.3131C6.31101 10.6672 6.10765 11.1473 6.10714 11.6481V15.7407H2.89286C2.72236 15.7407 2.55885 15.6744 2.43829 15.5563C2.31773 15.4382 2.25 15.2781 2.25 15.1111V8.46852C2.38293 8.48891 2.51724 8.49943 2.65179 8.5H2.8125C3.19371 8.50107 3.57065 8.42132 3.91742 8.26623C4.26419 8.11113 4.57259 7.88437 4.82143 7.60152C5.07027 7.88437 5.37866 8.11113 5.72543 8.26623C6.07221 8.42132 6.44914 8.50107 6.83036 8.5H6.99107C7.37229 8.50107 7.74922 8.42132 8.09599 8.26623C8.44277 8.11113 8.75116 7.88437 9 7.60152C9.24884 7.88437 9.55723 8.11113 9.90401 8.26623C10.2508 8.42132 10.6277 8.50107 11.0089 8.5H11.1696C11.5509 8.50107 11.9278 8.42132 12.2746 8.26623C12.6213 8.11113 12.9297 7.88437 13.1786 7.60152C13.4274 7.88437 13.7358 8.11113 14.0826 8.26623C14.4294 8.42132 14.8063 8.50107 15.1875 8.5H15.3482C15.4828 8.49943 15.6171 8.48891 15.75 8.46852V15.1111Z" fill="#6D6D6D"/>
</svg>
