<svg width="11" height="11" viewBox="0 0 11 11" fill="none" xmlns="http://www.w3.org/2000/svg">
<path d="M2.90064 5.6199C2.87366 5.44599 2.85966 5.26783 2.85966 5.08641C2.85966 3.16819 4.42491 1.61316 6.35576 1.61316C8.2866 1.61316 9.85186 3.16819 9.85186 5.08641C9.85186 5.51973 9.77199 5.93452 9.62607 6.31703C9.59576 6.39647 9.58061 6.43619 9.57373 6.46721C9.56691 6.49793 9.56428 6.51955 9.56354 6.55102C9.56279 6.58277 9.5671 6.61776 9.57571 6.68772L9.75049 8.1075C9.76942 8.26119 9.77888 8.33804 9.75331 8.39391C9.73091 8.44286 9.69112 8.48174 9.64167 8.50301C9.58523 8.52728 9.50862 8.51605 9.3554 8.49359L7.97249 8.29088C7.90029 8.2803 7.86418 8.275 7.8313 8.27519C7.79877 8.27537 7.77627 8.27778 7.74443 8.28447C7.71225 8.29123 7.67115 8.30663 7.58893 8.33743C7.20544 8.48107 6.78984 8.55966 6.35576 8.55966C6.1742 8.55966 5.99587 8.54591 5.82177 8.5194M3.56803 10.2963C4.85526 10.2963 5.89877 9.22721 5.89877 7.90843C5.89877 6.58965 4.85526 5.52057 3.56803 5.52057C2.2808 5.52057 1.2373 6.58965 1.2373 7.90843C1.2373 8.17352 1.27946 8.42852 1.3573 8.66678C1.3902 8.7675 1.40665 8.81785 1.41205 8.85226C1.41768 8.88817 1.41867 8.90834 1.41657 8.94464C1.41456 8.9794 1.40586 9.0187 1.38847 9.09728L1.12305 10.2963L2.42326 10.1187C2.49423 10.109 2.52971 10.1042 2.5607 10.1044C2.59333 10.1046 2.61064 10.1064 2.64264 10.1128C2.67303 10.1188 2.71821 10.1348 2.80856 10.1666C3.04662 10.2507 3.30212 10.2963 3.56803 10.2963Z" stroke="#999999" stroke-width="1.30247" stroke-linecap="round" stroke-linejoin="round"/>
</svg>
