<svg width="22" height="22" viewBox="0 0 22 22" fill="none" xmlns="http://www.w3.org/2000/svg">
<path d="M8.33333 3V19M7.26667 3H14.7333C16.2268 3 16.9735 3 17.544 3.29065C18.0457 3.54631 18.4537 3.95426 18.7094 4.45603C19 5.02646 19 5.77319 19 7.26667V14.7333C19 16.2268 19 16.9735 18.7094 17.544C18.4537 18.0457 18.0457 18.4537 17.544 18.7094C16.9735 19 16.2268 19 14.7333 19H7.26667C5.77319 19 5.02646 19 4.45603 18.7094C3.95426 18.4537 3.54631 18.0457 3.29065 17.544C3 16.9735 3 16.2268 3 14.7333V7.26667C3 5.77319 3 5.02646 3.29065 4.45603C3.54631 3.95426 3.95426 3.54631 4.45603 3.29065C5.02646 3 5.77319 3 7.26667 3Z" stroke="#999999" stroke-width="1.5" stroke-linecap="round" stroke-linejoin="round"/>
</svg>
