<svg width="19" height="19" viewBox="0 0 19 19" fill="none" xmlns="http://www.w3.org/2000/svg">
<g clip-path="url(#clip0_611_223)">
<path d="M17.8749 7.93898C17.8743 7.93856 17.8739 7.938 17.8735 7.93758L10.3949 0.459294C10.0761 0.140385 9.65232 -0.0351554 9.20151 -0.0351554C8.7507 -0.0351555 8.32689 0.140384 8.00798 0.459294L0.533331 7.9338C0.530813 7.93632 0.528155 7.93898 0.525778 7.94149C-0.128826 8.59987 -0.127707 9.66808 0.528994 10.3248C0.829021 10.6249 1.22514 10.7987 1.64881 10.817C1.66616 10.8187 1.6835 10.8195 1.70099 10.8195L1.99891 10.8195L1.99891 16.3229C1.99891 17.4121 2.88515 18.2982 3.97433 18.2982L6.90019 18.2982C7.19686 18.2982 7.4373 18.0576 7.4373 17.7611L7.4373 13.4463C7.4373 12.9494 7.84167 12.5451 8.33863 12.5451L10.0644 12.5451C10.5613 12.5451 10.9656 12.9494 10.9656 13.4463L10.9656 17.7611C10.9656 18.0576 11.206 18.2982 11.5027 18.2982L14.4285 18.2982C15.5179 18.2982 16.404 17.4121 16.404 16.3229L16.404 10.8195L16.6804 10.8195C17.131 10.8195 17.5548 10.644 17.8739 10.3249C18.5313 9.66724 18.5316 8.59708 17.8749 7.93898ZM17.1142 9.56541C16.9983 9.68137 16.8441 9.74529 16.6804 9.74529L15.8669 9.74529C15.5702 9.74529 15.3297 9.98573 15.3297 10.2824L15.3297 16.3229C15.3297 16.8198 14.9255 17.224 14.4285 17.224L12.0398 17.224L12.0398 13.4463C12.0398 12.3571 11.1537 11.4709 10.0644 11.4709L8.33864 11.4709C7.24931 11.4709 6.36308 12.3571 6.36308 13.4463L6.36308 17.224L3.97433 17.224C3.47751 17.224 3.07313 16.8198 3.07313 16.3229L3.07314 10.2824C3.07314 9.98573 2.83269 9.74529 2.53602 9.74529L1.73651 9.74529C1.72812 9.74473 1.71987 9.74431 1.71134 9.74417C1.55132 9.74137 1.40124 9.67787 1.28878 9.56527C1.0496 9.32609 1.0496 8.93683 1.28878 8.6975C1.28892 8.6975 1.28892 8.69736 1.28906 8.69722L1.28948 8.69681L8.76776 1.2188C8.88358 1.10285 9.03758 1.03907 9.20151 1.03907C9.3653 1.03907 9.5193 1.10285 9.63525 1.2188L17.1119 8.69527C17.113 8.69639 17.1142 8.69751 17.1154 8.69863C17.3533 8.93823 17.3529 9.32665 17.1142 9.56541Z" fill="#6D6D6D"/>
</g>
<defs>
<clipPath id="clip0_611_223">
<rect width="18.3333" height="18.3333" fill="white"/>
</clipPath>
</defs>
</svg>
