<svg width="19" height="17" viewBox="0 0 19 17" fill="none" xmlns="http://www.w3.org/2000/svg">
<path d="M9.26058 15.6998V2.7398M9.26058 15.6998L7.98529 14.4245C7.26516 13.7044 6.28887 13.2998 5.27044 13.2998H2.05975C1.52956 13.2998 1.10059 12.87 1.10059 12.3398V2.2598C1.10059 1.72961 1.53039 1.2998 2.06059 1.2998H5.75001C6.76844 1.2998 7.74515 1.70437 8.46529 2.42451L9.26058 3.2198L10.0559 2.42451C10.776 1.70438 11.7527 1.2998 12.7712 1.2998H16.9406C17.4708 1.2998 17.9006 1.72961 17.9006 2.2598V12.3398C17.9006 12.87 17.4708 13.2998 16.9406 13.2998H13.2512C12.2327 13.2998 11.256 13.7044 10.5359 14.4245L9.26058 15.6998Z" stroke="#737373" stroke-width="0.875" stroke-linecap="round" stroke-linejoin="round"/>
</svg>
