<svg width="21" height="21" viewBox="0 0 21 21" fill="none" xmlns="http://www.w3.org/2000/svg">
<path d="M4.59375 17.3905V15.914C4.59375 14.8267 5.47519 13.9452 6.5625 13.9452H14.4375C15.5248 13.9452 16.4062 14.8267 16.4062 15.914V17.8827M4.59375 18.375C3.50644 18.375 2.625 17.4472 2.625 16.3026V4.69737C2.625 3.55283 3.50644 2.625 4.59375 2.625H16.4062C17.4936 2.625 18.375 3.55283 18.375 4.69737V16.3026C18.375 17.4472 17.4936 18.375 16.4062 18.375H4.59375ZM12.9609 8.03897C12.9609 9.3981 11.8591 10.4999 10.5 10.4999C9.14086 10.4999 8.03906 9.3981 8.03906 8.03897C8.03906 6.67983 9.14086 5.57803 10.5 5.57803C11.8591 5.57803 12.9609 6.67983 12.9609 8.03897Z" stroke="white" stroke-linecap="round" stroke-linejoin="round"/>
</svg>
