<svg width="18" height="19" viewBox="0 0 18 19" fill="none" xmlns="http://www.w3.org/2000/svg">
<g clip-path="url(#clip0_324_134)">
<path d="M9.27988 2.22083L8.33813 5.98785C8.15436 6.72292 8.06248 7.09045 7.87111 7.38952C7.70184 7.65406 7.47718 7.87872 7.21264 8.04799C6.91357 8.23936 6.54604 8.33124 5.81097 8.51501L2.04395 9.45677L5.81097 10.3985C6.54604 10.5823 6.91357 10.6742 7.21264 10.8655C7.47718 11.0348 7.70184 11.2595 7.87111 11.524C8.06248 11.8231 8.15436 12.1906 8.33813 12.9257L9.27989 16.6927L10.2216 12.9257C10.4054 12.1906 10.4973 11.8231 10.6887 11.524C10.8579 11.2595 11.0826 11.0348 11.3471 10.8655C11.6462 10.6742 12.0137 10.5823 12.7488 10.3985L16.5158 9.45677L12.7488 8.51501C12.0137 8.33124 11.6462 8.23936 11.3471 8.04799C11.0826 7.87872 10.8579 7.65406 10.6887 7.38952C10.4973 7.09045 10.4054 6.72292 10.2216 5.98785L9.27988 2.22083Z" stroke="#999999" stroke-width="1.30247" stroke-linecap="round" stroke-linejoin="round"/>
</g>
<defs>
<clipPath id="clip0_324_134">
<rect width="17.3663" height="17.3663" fill="white" transform="translate(0.59668 0.773621)"/>
</clipPath>
</defs>
</svg>
