<svg width="17" height="17" viewBox="0 0 17 17" fill="none" xmlns="http://www.w3.org/2000/svg">
<path d="M2.59375 15.3905V13.914C2.59375 12.8267 3.47519 11.9452 4.5625 11.9452H12.4375C13.5248 11.9452 14.4062 12.8267 14.4062 13.914V15.8827M2.59375 16.375C1.50644 16.375 0.625 15.4472 0.625 14.3026V2.69737C0.625 1.55283 1.50644 0.625 2.59375 0.625H14.4062C15.4936 0.625 16.375 1.55283 16.375 2.69737V14.3026C16.375 15.4472 15.4936 16.375 14.4062 16.375H2.59375ZM10.9609 6.03897C10.9609 7.3981 9.85914 8.4999 8.5 8.4999C7.14086 8.4999 6.03906 7.3981 6.03906 6.03897C6.03906 4.67983 7.14086 3.57803 8.5 3.57803C9.85914 3.57803 10.9609 4.67983 10.9609 6.03897Z" stroke="#737373" stroke-linecap="round" stroke-linejoin="round"/>
</svg>
